<svg width="61" height="60" viewBox="0 0 61 60" fill="none" xmlns="http://www.w3.org/2000/svg">
<path d="M40.3332 52.5V47.5C40.3332 44.8478 39.2797 42.3043 37.4043 40.4289C35.529 38.5536 32.9854 37.5 30.3332 37.5H15.3333C12.6811 37.5 10.1375 38.5536 8.26218 40.4289C6.38682 42.3043 5.33325 44.8478 5.33325 47.5V52.5" stroke="#2BA3C2" stroke-width="4.66667" stroke-linecap="round" stroke-linejoin="round"/>
<path d="M22.8333 27.5C28.3561 27.5 32.8333 23.0228 32.8333 17.5C32.8333 11.9772 28.3561 7.5 22.8333 7.5C17.3104 7.5 12.8333 11.9772 12.8333 17.5C12.8333 23.0228 17.3104 27.5 22.8333 27.5Z" stroke="#2BA3C2" stroke-width="4.66667" stroke-linecap="round" stroke-linejoin="round"/>
<path d="M55.3333 52.4999V47.5C55.3316 45.2843 54.5941 43.1319 53.2367 41.3807C51.8792 39.6296 49.9786 38.3789 47.8333 37.825M40.3333 7.82495C42.4843 8.3757 44.3908 9.6267 45.7523 11.3807C47.1139 13.1348 47.8529 15.292 47.8529 17.5125C47.8529 19.7329 47.1139 21.8902 45.7523 23.6442C44.3908 25.3982 42.4843 26.6492 40.3333 27.2" stroke="#2BA3C2" stroke-width="4.66667" stroke-linecap="round" stroke-linejoin="round"/>
</svg>
