<svg width="60" height="60" viewBox="0 0 60 60" fill="none" xmlns="http://www.w3.org/2000/svg">
<path d="M27.5 42.5L32.5 47.5C32.9925 47.9925 33.5771 48.3831 34.2205 48.6496C34.8639 48.9161 35.5536 49.0533 36.25 49.0533C36.9464 49.0533 37.6361 48.9161 38.2795 48.6496C38.9229 48.3831 39.5075 47.9925 40 47.5C40.4925 47.0075 40.8831 46.4229 41.1496 45.7795C41.4161 45.1361 41.5533 44.4464 41.5533 43.75C41.5533 43.0536 41.4161 42.3639 41.1496 41.7205C40.8831 41.0771 40.4925 40.4925 40 40" stroke="#2BA3C2" stroke-width="4.66667" stroke-linecap="round" stroke-linejoin="round"/>
<path d="M35.0001 35L41.2501 41.25C42.2446 42.2446 43.5936 42.8033 45.0001 42.8033C46.4066 42.8033 47.7555 42.2446 48.7501 41.25C49.7446 40.2555 50.3034 38.9066 50.3034 37.5C50.3034 36.0935 49.7446 34.7446 48.7501 33.75L39.0501 24.05C37.6438 22.6455 35.7376 21.8566 33.7501 21.8566C31.7626 21.8566 29.8563 22.6455 28.4501 24.05L26.2501 26.25C25.2555 27.2446 23.9066 27.8033 22.5001 27.8033C21.0936 27.8033 19.7446 27.2446 18.7501 26.25C17.7555 25.2555 17.1968 23.9066 17.1968 22.5C17.1968 21.0935 17.7555 19.7446 18.7501 18.75L25.7751 11.725C28.0557 9.4504 31.0298 8.00142 34.2267 7.60747C37.4235 7.21352 40.6605 7.89712 43.4251 9.55004L44.6001 10.25C45.6645 10.8925 46.9302 11.1153 48.1501 10.875L52.5001 10" stroke="#2BA3C2" stroke-width="4.66667" stroke-linecap="round" stroke-linejoin="round"/>
<path d="M52.5 7.5L55 35H50M7.5 7.5L5 35L21.25 51.25C22.2446 52.2446 23.5935 52.8033 25 52.8033C26.4065 52.8033 27.7554 52.2446 28.75 51.25C29.7446 50.2554 30.3033 48.9065 30.3033 47.5C30.3033 46.0935 29.7446 44.7446 28.75 43.75M7.5 10H27.5" stroke="#2BA3C2" stroke-width="4.66667" stroke-linecap="round" stroke-linejoin="round"/>
</svg>
