<svg width="60" height="56" viewBox="0 0 60 56" fill="none" xmlns="http://www.w3.org/2000/svg">
<path d="M30 30.3333V4.66663L50 14L30 23.3333" stroke="#2BA3C2" stroke-width="4.66667" stroke-linecap="round" stroke-linejoin="round"/>
<path d="M51.4026 23.8513C52.7329 27.6783 52.8574 31.7814 51.7612 35.6725C50.6649 39.5636 48.3942 43.0789 45.219 45.8002C42.0438 48.5215 38.0979 50.3341 33.8506 51.0225C29.6034 51.7109 25.2338 51.2461 21.2615 49.6834C17.2891 48.1206 13.8814 45.5257 11.4438 42.2074C9.0061 38.889 7.64107 34.987 7.51109 30.9654C7.3811 26.9439 8.49164 22.9721 10.7106 19.5227C12.9295 16.0732 16.1634 13.2913 20.0276 11.5079" stroke="#2BA3C2" stroke-width="4.66667" stroke-linecap="round" stroke-linejoin="round"/>
<path d="M20.0051 23.3263C18.7524 24.8827 17.9368 26.7069 17.6327 28.6327C17.3286 30.5586 17.5457 32.5248 18.2641 34.3523C18.9825 36.1799 20.1795 37.8105 21.7459 39.0958C23.3124 40.3811 25.1985 41.2801 27.2324 41.711C29.2664 42.1419 31.3835 42.0909 33.391 41.5627C35.3984 41.0344 37.2323 40.0458 38.7256 38.6868C40.219 37.3278 41.3242 35.6417 41.9407 33.782C42.5571 31.9223 42.6652 29.9483 42.2551 28.0396" stroke="#2BA3C2" stroke-width="4.66667" stroke-linecap="round" stroke-linejoin="round"/>
</svg>
