<svg width="61" height="56" viewBox="0 0 61 56" fill="none" xmlns="http://www.w3.org/2000/svg">
<path d="M38.1666 4.66663H15.6666C14.3405 4.66663 13.0688 5.15829 12.1311 6.03346C11.1934 6.90863 10.6666 8.09562 10.6666 9.33329V46.6666C10.6666 47.9043 11.1934 49.0913 12.1311 49.9665C13.0688 50.8416 14.3405 51.3333 15.6666 51.3333H45.6666C46.9927 51.3333 48.2645 50.8416 49.2022 49.9665C50.1398 49.0913 50.6666 47.9043 50.6666 46.6666V16.3333L38.1666 4.66663Z" stroke="#2BA3C2" stroke-width="4.66667" stroke-linecap="round" stroke-linejoin="round"/>
<path d="M35.6666 4.66663V14C35.6666 15.2376 36.1934 16.4246 37.1311 17.2998C38.0688 18.175 39.3405 18.6666 40.6666 18.6666H50.6666M25.6666 21H20.6666M40.6666 30.3333H20.6666M40.6666 39.6666H20.6666" stroke="#2BA3C2" stroke-width="4.66667" stroke-linecap="round" stroke-linejoin="round"/>
</svg>
