<svg width="104" height="104" viewBox="0 0 104 104" fill="none" xmlns="http://www.w3.org/2000/svg">
<g filter="url(#filter0_d_222_15)">
<rect x="4" width="96" height="96" rx="28" fill="#03045E"/>
<g filter="url(#filter1_d_222_15)">
<path d="M61.88 25.072V70H50.936V51.504H33.912V70H22.968V25.072H33.912V42.672H50.936V25.072H61.88ZM75.2845 30.576C73.3645 30.576 71.7858 30.0213 70.5485 28.912C69.3538 27.76 68.7565 26.352 68.7565 24.688C68.7565 22.9813 69.3538 21.5733 70.5485 20.464C71.7858 19.312 73.3645 18.736 75.2845 18.736C77.1618 18.736 78.6978 19.312 79.8925 20.464C81.1298 21.5733 81.7485 22.9813 81.7485 24.688C81.7485 26.352 81.1298 27.76 79.8925 28.912C78.6978 30.0213 77.1618 30.576 75.2845 30.576ZM80.7245 34.288V70H69.7805V34.288H80.7245Z" fill="white"/>
</g>
</g>
<defs>
<filter id="filter0_d_222_15" x="0" y="0" width="104" height="104" filterUnits="userSpaceOnUse" color-interpolation-filters="sRGB">
<feFlood flood-opacity="0" result="BackgroundImageFix"/>
<feColorMatrix in="SourceAlpha" type="matrix" values="0 0 0 0 0 0 0 0 0 0 0 0 0 0 0 0 0 0 127 0" result="hardAlpha"/>
<feOffset dy="4"/>
<feGaussianBlur stdDeviation="2"/>
<feComposite in2="hardAlpha" operator="out"/>
<feColorMatrix type="matrix" values="0 0 0 0 0.729412 0 0 0 0 0.905882 0 0 0 0 0.92549 0 0 0 0.25 0"/>
<feBlend mode="normal" in2="BackgroundImageFix" result="effect1_dropShadow_222_15"/>
<feBlend mode="normal" in="SourceGraphic" in2="effect1_dropShadow_222_15" result="shape"/>
</filter>
<filter id="filter1_d_222_15" x="18.968" y="18.736" width="66.7805" height="59.264" filterUnits="userSpaceOnUse" color-interpolation-filters="sRGB">
<feFlood flood-opacity="0" result="BackgroundImageFix"/>
<feColorMatrix in="SourceAlpha" type="matrix" values="0 0 0 0 0 0 0 0 0 0 0 0 0 0 0 0 0 0 127 0" result="hardAlpha"/>
<feOffset dy="4"/>
<feGaussianBlur stdDeviation="2"/>
<feComposite in2="hardAlpha" operator="out"/>
<feColorMatrix type="matrix" values="0 0 0 0 0.729412 0 0 0 0 0.905882 0 0 0 0 0.92549 0 0 0 0.25 0"/>
<feBlend mode="normal" in2="BackgroundImageFix" result="effect1_dropShadow_222_15"/>
<feBlend mode="normal" in="SourceGraphic" in2="effect1_dropShadow_222_15" result="shape"/>
</filter>
</defs>
</svg>
