<svg width="853" height="120" viewBox="0 0 853 120" fill="none" xmlns="http://www.w3.org/2000/svg">
<g filter="url(#filter0_d_304_17)">
<rect x="4" width="845" height="112" rx="28" fill="#03045E" shape-rendering="crispEdges"/>
<g filter="url(#filter1_d_304_17)">
<path d="M101.792 33.072L90.08 78H76.832L69.664 48.432L62.24 78H48.992L37.6 33.072H49.312L55.776 65.776L63.776 33.072H75.808L83.488 65.776L90.016 33.072H101.792ZM140.944 59.568C140.944 60.592 140.881 61.6587 140.753 62.768H115.985C116.155 64.9867 116.859 66.6933 118.097 67.888C119.377 69.04 120.934 69.616 122.769 69.616C125.499 69.616 127.398 68.464 128.465 66.16H140.113C139.515 68.5067 138.427 70.6187 136.849 72.496C135.313 74.3733 133.371 75.8453 131.025 76.912C128.678 77.9787 126.054 78.512 123.153 78.512C119.654 78.512 116.539 77.7653 113.809 76.272C111.078 74.7787 108.945 72.6453 107.409 69.872C105.873 67.0987 105.105 63.856 105.105 60.144C105.105 56.432 105.851 53.1893 107.345 50.416C108.881 47.6427 111.014 45.5093 113.745 44.016C116.475 42.5227 119.611 41.776 123.153 41.776C126.609 41.776 129.681 42.5013 132.369 43.952C135.057 45.4027 137.147 47.472 138.641 50.16C140.177 52.848 140.944 55.984 140.944 59.568ZM129.745 56.688C129.745 54.8107 129.105 53.3173 127.825 52.208C126.545 51.0987 124.945 50.544 123.025 50.544C121.19 50.544 119.633 51.0773 118.353 52.144C117.115 53.2107 116.347 54.7253 116.049 56.688H129.745ZM157.662 30.64V78H146.718V30.64H157.662ZM163.417 60.144C163.417 56.432 164.164 53.1893 165.657 50.416C167.193 47.6427 169.305 45.5093 171.993 44.016C174.724 42.5227 177.838 41.776 181.337 41.776C185.817 41.776 189.55 42.9493 192.537 45.296C195.566 47.6427 197.55 50.9493 198.489 55.216H186.841C185.86 52.4853 183.961 51.12 181.145 51.12C179.14 51.12 177.54 51.9093 176.345 53.488C175.15 55.024 174.553 57.2427 174.553 60.144C174.553 63.0453 175.15 65.2853 176.345 66.864C177.54 68.4 179.14 69.168 181.145 69.168C183.961 69.168 185.86 67.8027 186.841 65.072H198.489C197.55 69.2533 195.566 72.5387 192.537 74.928C189.508 77.3173 185.774 78.512 181.337 78.512C177.838 78.512 174.724 77.7653 171.993 76.272C169.305 74.7787 167.193 72.6453 165.657 69.872C164.164 67.0987 163.417 63.856 163.417 60.144ZM220.599 78.512C217.1 78.512 213.943 77.7653 211.127 76.272C208.354 74.7787 206.156 72.6453 204.535 69.872C202.956 67.0987 202.167 63.856 202.167 60.144C202.167 56.4747 202.978 53.2533 204.599 50.48C206.22 47.664 208.439 45.5093 211.255 44.016C214.071 42.5227 217.228 41.776 220.727 41.776C224.226 41.776 227.383 42.5227 230.199 44.016C233.015 45.5093 235.234 47.664 236.855 50.48C238.476 53.2533 239.287 56.4747 239.287 60.144C239.287 63.8133 238.455 67.056 236.791 69.872C235.17 72.6453 232.93 74.7787 230.071 76.272C227.255 77.7653 224.098 78.512 220.599 78.512ZM220.599 69.04C222.69 69.04 224.46 68.272 225.911 66.736C227.404 65.2 228.151 63.0027 228.151 60.144C228.151 57.2853 227.426 55.088 225.975 53.552C224.567 52.016 222.818 51.248 220.727 51.248C218.594 51.248 216.823 52.016 215.415 53.552C214.007 55.0453 213.303 57.2427 213.303 60.144C213.303 63.0027 213.986 65.2 215.351 66.736C216.759 68.272 218.508 69.04 220.599 69.04ZM290.661 41.904C295.098 41.904 298.618 43.248 301.221 45.936C303.866 48.624 305.189 52.3573 305.189 57.136V78H294.309V58.608C294.309 56.304 293.69 54.5333 292.453 53.296C291.258 52.016 289.594 51.376 287.461 51.376C285.328 51.376 283.642 52.016 282.405 53.296C281.21 54.5333 280.613 56.304 280.613 58.608V78H269.733V58.608C269.733 56.304 269.114 54.5333 267.877 53.296C266.682 52.016 265.018 51.376 262.885 51.376C260.752 51.376 259.066 52.016 257.829 53.296C256.634 54.5333 256.037 56.304 256.037 58.608V78H245.093V42.288H256.037V46.768C257.146 45.2747 258.597 44.1013 260.389 43.248C262.181 42.352 264.208 41.904 266.469 41.904C269.157 41.904 271.546 42.48 273.637 43.632C275.77 44.784 277.434 46.4267 278.629 48.56C279.866 46.5973 281.552 44.9973 283.685 43.76C285.818 42.5227 288.144 41.904 290.661 41.904ZM346.507 59.568C346.507 60.592 346.443 61.6587 346.315 62.768H321.547C321.718 64.9867 322.422 66.6933 323.659 67.888C324.939 69.04 326.496 69.616 328.331 69.616C331.062 69.616 332.96 68.464 334.027 66.16H345.675C345.078 68.5067 343.99 70.6187 342.411 72.496C340.875 74.3733 338.934 75.8453 336.587 76.912C334.24 77.9787 331.616 78.512 328.715 78.512C325.216 78.512 322.102 77.7653 319.371 76.272C316.64 74.7787 314.507 72.6453 312.971 69.872C311.435 67.0987 310.667 63.856 310.667 60.144C310.667 56.432 311.414 53.1893 312.907 50.416C314.443 47.6427 316.576 45.5093 319.307 44.016C322.038 42.5227 325.174 41.776 328.715 41.776C332.171 41.776 335.243 42.5013 337.931 43.952C340.619 45.4027 342.71 47.472 344.203 50.16C345.739 52.848 346.507 55.984 346.507 59.568ZM335.307 56.688C335.307 54.8107 334.667 53.3173 333.387 52.208C332.107 51.0987 330.507 50.544 328.587 50.544C326.752 50.544 325.195 51.0773 323.915 52.144C322.678 53.2107 321.91 54.7253 321.611 56.688H335.307ZM385.747 68.72V78H380.179C376.211 78 373.118 77.04 370.899 75.12C368.68 73.1573 367.571 69.9787 367.571 65.584V51.376H363.219V42.288H367.571V33.584H378.515V42.288H385.683V51.376H378.515V65.712C378.515 66.7787 378.771 67.5467 379.283 68.016C379.795 68.4853 380.648 68.72 381.843 68.72H385.747ZM408.099 78.512C404.6 78.512 401.443 77.7653 398.627 76.272C395.854 74.7787 393.656 72.6453 392.035 69.872C390.456 67.0987 389.667 63.856 389.667 60.144C389.667 56.4747 390.478 53.2533 392.099 50.48C393.72 47.664 395.939 45.5093 398.755 44.016C401.571 42.5227 404.728 41.776 408.227 41.776C411.726 41.776 414.883 42.5227 417.699 44.016C420.515 45.5093 422.734 47.664 424.355 50.48C425.976 53.2533 426.787 56.4747 426.787 60.144C426.787 63.8133 425.955 67.056 424.291 69.872C422.67 72.6453 420.43 74.7787 417.571 76.272C414.755 77.7653 411.598 78.512 408.099 78.512ZM408.099 69.04C410.19 69.04 411.96 68.272 413.411 66.736C414.904 65.2 415.651 63.0027 415.651 60.144C415.651 57.2853 414.926 55.088 413.475 53.552C412.067 52.016 410.318 51.248 408.227 51.248C406.094 51.248 404.323 52.016 402.915 53.552C401.507 55.0453 400.803 57.2427 400.803 60.144C400.803 63.0027 401.486 65.2 402.851 66.736C404.259 68.272 406.008 69.04 408.099 69.04ZM491.724 41.904C496.161 41.904 499.681 43.248 502.284 45.936C504.929 48.624 506.252 52.3573 506.252 57.136V78H495.372V58.608C495.372 56.304 494.753 54.5333 493.516 53.296C492.321 52.016 490.657 51.376 488.524 51.376C486.39 51.376 484.705 52.016 483.468 53.296C482.273 54.5333 481.676 56.304 481.676 58.608V78H470.796V58.608C470.796 56.304 470.177 54.5333 468.94 53.296C467.745 52.016 466.081 51.376 463.948 51.376C461.814 51.376 460.129 52.016 458.892 53.296C457.697 54.5333 457.1 56.304 457.1 58.608V78H446.156V42.288H457.1V46.768C458.209 45.2747 459.66 44.1013 461.452 43.248C463.244 42.352 465.27 41.904 467.532 41.904C470.22 41.904 472.609 42.48 474.7 43.632C476.833 44.784 478.497 46.4267 479.692 48.56C480.929 46.5973 482.614 44.9973 484.748 43.76C486.881 42.5227 489.206 41.904 491.724 41.904ZM550.386 42.288L527.986 94.96H516.21L524.402 76.784L509.873 42.288H522.098L530.354 64.624L538.546 42.288H550.386ZM578.85 48.24C580.13 46.2773 581.73 44.7413 583.65 43.632C585.57 42.48 587.703 41.904 590.05 41.904V53.488H587.042C584.311 53.488 582.263 54.0853 580.898 55.28C579.532 56.432 578.85 58.48 578.85 61.424V78H567.906V42.288H578.85V48.24ZM628.944 59.568C628.944 60.592 628.881 61.6587 628.753 62.768H603.985C604.155 64.9867 604.859 66.6933 606.097 67.888C607.377 69.04 608.934 69.616 610.769 69.616C613.499 69.616 615.398 68.464 616.465 66.16H628.113C627.515 68.5067 626.427 70.6187 624.849 72.496C623.313 74.3733 621.371 75.8453 619.025 76.912C616.678 77.9787 614.054 78.512 611.153 78.512C607.654 78.512 604.539 77.7653 601.809 76.272C599.078 74.7787 596.945 72.6453 595.409 69.872C593.873 67.0987 593.105 63.856 593.105 60.144C593.105 56.432 593.851 53.1893 595.345 50.416C596.881 47.6427 599.014 45.5093 601.745 44.016C604.475 42.5227 607.611 41.776 611.153 41.776C614.609 41.776 617.681 42.5013 620.369 43.952C623.057 45.4027 625.147 47.472 626.641 50.16C628.177 52.848 628.944 55.984 628.944 59.568ZM617.745 56.688C617.745 54.8107 617.105 53.3173 615.825 52.208C614.545 51.0987 612.945 50.544 611.025 50.544C609.19 50.544 607.633 51.0773 606.353 52.144C605.115 53.2107 604.347 54.7253 604.049 56.688H617.745ZM649.246 78.512C646.131 78.512 643.358 77.9787 640.926 76.912C638.494 75.8453 636.574 74.3947 635.166 72.56C633.758 70.6827 632.969 68.592 632.798 66.288H643.614C643.742 67.5253 644.318 68.528 645.342 69.296C646.366 70.064 647.625 70.448 649.118 70.448C650.483 70.448 651.529 70.192 652.254 69.68C653.022 69.1253 653.406 68.4213 653.406 67.568C653.406 66.544 652.873 65.7973 651.806 65.328C650.739 64.816 649.011 64.2613 646.622 63.664C644.062 63.0667 641.929 62.448 640.222 61.808C638.515 61.1253 637.043 60.08 635.806 58.672C634.569 57.2213 633.95 55.28 633.95 52.848C633.95 50.8 634.505 48.944 635.614 47.28C636.766 45.5733 638.43 44.2293 640.606 43.248C642.825 42.2667 645.449 41.776 648.478 41.776C652.958 41.776 656.478 42.8853 659.038 45.104C661.641 47.3227 663.134 50.2667 663.518 53.936H653.406C653.235 52.6987 652.681 51.7173 651.742 50.992C650.846 50.2667 649.651 49.904 648.158 49.904C646.878 49.904 645.897 50.16 645.214 50.672C644.531 51.1413 644.19 51.8027 644.19 52.656C644.19 53.68 644.723 54.448 645.79 54.96C646.899 55.472 648.606 55.984 650.91 56.496C653.555 57.1787 655.71 57.8613 657.374 58.544C659.038 59.184 660.489 60.2507 661.726 61.744C663.006 63.1947 663.667 65.1573 663.71 67.632C663.71 69.7227 663.113 71.6 661.918 73.264C660.766 74.8853 659.081 76.1653 656.862 77.104C654.686 78.0427 652.147 78.512 649.246 78.512ZM705.67 42.288V78H694.726V73.136C693.616 74.7147 692.102 75.9947 690.182 76.976C688.304 77.9147 686.214 78.384 683.91 78.384C681.179 78.384 678.768 77.7867 676.678 76.592C674.587 75.3547 672.966 73.584 671.814 71.28C670.662 68.976 670.086 66.2667 670.086 63.152V42.288H680.966V61.68C680.966 64.0693 681.584 65.9253 682.822 67.248C684.059 68.5707 685.723 69.232 687.814 69.232C689.947 69.232 691.632 68.5707 692.87 67.248C694.107 65.9253 694.726 64.0693 694.726 61.68V42.288H705.67ZM759.099 41.904C763.536 41.904 767.056 43.248 769.659 45.936C772.304 48.624 773.627 52.3573 773.627 57.136V78H762.747V58.608C762.747 56.304 762.128 54.5333 760.891 53.296C759.696 52.016 758.032 51.376 755.899 51.376C753.765 51.376 752.08 52.016 750.843 53.296C749.648 54.5333 749.051 56.304 749.051 58.608V78H738.171V58.608C738.171 56.304 737.552 54.5333 736.315 53.296C735.12 52.016 733.456 51.376 731.323 51.376C729.189 51.376 727.504 52.016 726.267 53.296C725.072 54.5333 724.475 56.304 724.475 58.608V78H713.531V42.288H724.475V46.768C725.584 45.2747 727.035 44.1013 728.827 43.248C730.619 42.352 732.645 41.904 734.907 41.904C737.595 41.904 739.984 42.48 742.075 43.632C744.208 44.784 745.872 46.4267 747.067 48.56C748.304 46.5973 749.989 44.9973 752.123 43.76C754.256 42.5227 756.581 41.904 759.099 41.904ZM814.944 59.568C814.944 60.592 814.881 61.6587 814.753 62.768H789.985C790.155 64.9867 790.859 66.6933 792.097 67.888C793.377 69.04 794.934 69.616 796.769 69.616C799.499 69.616 801.398 68.464 802.465 66.16H814.113C813.515 68.5067 812.427 70.6187 810.849 72.496C809.313 74.3733 807.371 75.8453 805.025 76.912C802.678 77.9787 800.054 78.512 797.153 78.512C793.654 78.512 790.539 77.7653 787.809 76.272C785.078 74.7787 782.945 72.6453 781.409 69.872C779.873 67.0987 779.105 63.856 779.105 60.144C779.105 56.432 779.851 53.1893 781.345 50.416C782.881 47.6427 785.014 45.5093 787.745 44.016C790.475 42.5227 793.611 41.776 797.153 41.776C800.609 41.776 803.681 42.5013 806.369 43.952C809.057 45.4027 811.147 47.472 812.641 50.16C814.177 52.848 814.944 55.984 814.944 59.568ZM803.745 56.688C803.745 54.8107 803.105 53.3173 801.825 52.208C800.545 51.0987 798.945 50.544 797.025 50.544C795.19 50.544 793.633 51.0773 792.353 52.144C791.115 53.2107 790.347 54.7253 790.049 56.688H803.745Z" fill="white"/>
</g>
</g>
<defs>
<filter id="filter0_d_304_17" x="0" y="0" width="853" height="120" filterUnits="userSpaceOnUse" color-interpolation-filters="sRGB">
<feFlood flood-opacity="0" result="BackgroundImageFix"/>
<feColorMatrix in="SourceAlpha" type="matrix" values="0 0 0 0 0 0 0 0 0 0 0 0 0 0 0 0 0 0 127 0" result="hardAlpha"/>
<feOffset dy="4"/>
<feGaussianBlur stdDeviation="2"/>
<feComposite in2="hardAlpha" operator="out"/>
<feColorMatrix type="matrix" values="0 0 0 0 0.729412 0 0 0 0 0.905882 0 0 0 0 0.92549 0 0 0 0.25 0"/>
<feBlend mode="normal" in2="BackgroundImageFix" result="effect1_dropShadow_304_17"/>
<feBlend mode="normal" in="SourceGraphic" in2="effect1_dropShadow_304_17" result="shape"/>
</filter>
<filter id="filter1_d_304_17" x="29.6001" y="30.6399" width="793.344" height="80.3201" filterUnits="userSpaceOnUse" color-interpolation-filters="sRGB">
<feFlood flood-opacity="0" result="BackgroundImageFix"/>
<feColorMatrix in="SourceAlpha" type="matrix" values="0 0 0 0 0 0 0 0 0 0 0 0 0 0 0 0 0 0 127 0" result="hardAlpha"/>
<feOffset dy="8"/>
<feGaussianBlur stdDeviation="4"/>
<feComposite in2="hardAlpha" operator="out"/>
<feColorMatrix type="matrix" values="0 0 0 0 0.729412 0 0 0 0 0.905882 0 0 0 0 0.92549 0 0 0 0.24 0"/>
<feBlend mode="normal" in2="BackgroundImageFix" result="effect1_dropShadow_304_17"/>
<feBlend mode="normal" in="SourceGraphic" in2="effect1_dropShadow_304_17" result="shape"/>
</filter>
</defs>
</svg>
