<svg width="385" height="120" viewBox="0 0 385 120" fill="none" xmlns="http://www.w3.org/2000/svg">
<g filter="url(#filter0_d_304_20)">
<rect x="4" width="377" height="112" rx="28" fill="#03045E" shape-rendering="crispEdges"/>
<g filter="url(#filter1_d_304_20)">
<path d="M101.792 33.072L90.08 78H76.832L69.664 48.432L62.24 78H48.992L37.6 33.072H49.312L55.776 65.776L63.776 33.072H75.808L83.488 65.776L90.016 33.072H101.792ZM140.944 59.568C140.944 60.592 140.881 61.6587 140.753 62.768H115.985C116.155 64.9867 116.859 66.6933 118.097 67.888C119.377 69.04 120.934 69.616 122.769 69.616C125.499 69.616 127.398 68.464 128.465 66.16H140.113C139.515 68.5067 138.427 70.6187 136.849 72.496C135.313 74.3733 133.371 75.8453 131.025 76.912C128.678 77.9787 126.054 78.512 123.153 78.512C119.654 78.512 116.539 77.7653 113.809 76.272C111.078 74.7787 108.945 72.6453 107.409 69.872C105.873 67.0987 105.105 63.856 105.105 60.144C105.105 56.432 105.851 53.1893 107.345 50.416C108.881 47.6427 111.014 45.5093 113.745 44.016C116.475 42.5227 119.611 41.776 123.153 41.776C126.609 41.776 129.681 42.5013 132.369 43.952C135.057 45.4027 137.147 47.472 138.641 50.16C140.177 52.848 140.944 55.984 140.944 59.568ZM129.745 56.688C129.745 54.8107 129.105 53.3173 127.825 52.208C126.545 51.0987 124.945 50.544 123.025 50.544C121.19 50.544 119.633 51.0773 118.353 52.144C117.115 53.2107 116.347 54.7253 116.049 56.688H129.745ZM157.662 30.64V78H146.718V30.64H157.662ZM163.417 60.144C163.417 56.432 164.164 53.1893 165.657 50.416C167.193 47.6427 169.305 45.5093 171.993 44.016C174.724 42.5227 177.838 41.776 181.337 41.776C185.817 41.776 189.55 42.9493 192.537 45.296C195.566 47.6427 197.55 50.9493 198.489 55.216H186.841C185.86 52.4853 183.961 51.12 181.145 51.12C179.14 51.12 177.54 51.9093 176.345 53.488C175.15 55.024 174.553 57.2427 174.553 60.144C174.553 63.0453 175.15 65.2853 176.345 66.864C177.54 68.4 179.14 69.168 181.145 69.168C183.961 69.168 185.86 67.8027 186.841 65.072H198.489C197.55 69.2533 195.566 72.5387 192.537 74.928C189.508 77.3173 185.774 78.512 181.337 78.512C177.838 78.512 174.724 77.7653 171.993 76.272C169.305 74.7787 167.193 72.6453 165.657 69.872C164.164 67.0987 163.417 63.856 163.417 60.144ZM220.599 78.512C217.1 78.512 213.943 77.7653 211.127 76.272C208.354 74.7787 206.156 72.6453 204.535 69.872C202.956 67.0987 202.167 63.856 202.167 60.144C202.167 56.4747 202.978 53.2533 204.599 50.48C206.22 47.664 208.439 45.5093 211.255 44.016C214.071 42.5227 217.228 41.776 220.727 41.776C224.226 41.776 227.383 42.5227 230.199 44.016C233.015 45.5093 235.234 47.664 236.855 50.48C238.476 53.2533 239.287 56.4747 239.287 60.144C239.287 63.8133 238.455 67.056 236.791 69.872C235.17 72.6453 232.93 74.7787 230.071 76.272C227.255 77.7653 224.098 78.512 220.599 78.512ZM220.599 69.04C222.69 69.04 224.46 68.272 225.911 66.736C227.404 65.2 228.151 63.0027 228.151 60.144C228.151 57.2853 227.426 55.088 225.975 53.552C224.567 52.016 222.818 51.248 220.727 51.248C218.594 51.248 216.823 52.016 215.415 53.552C214.007 55.0453 213.303 57.2427 213.303 60.144C213.303 63.0027 213.986 65.2 215.351 66.736C216.759 68.272 218.508 69.04 220.599 69.04ZM290.661 41.904C295.098 41.904 298.618 43.248 301.221 45.936C303.866 48.624 305.189 52.3573 305.189 57.136V78H294.309V58.608C294.309 56.304 293.69 54.5333 292.453 53.296C291.258 52.016 289.594 51.376 287.461 51.376C285.328 51.376 283.642 52.016 282.405 53.296C281.21 54.5333 280.613 56.304 280.613 58.608V78H269.733V58.608C269.733 56.304 269.114 54.5333 267.877 53.296C266.682 52.016 265.018 51.376 262.885 51.376C260.752 51.376 259.066 52.016 257.829 53.296C256.634 54.5333 256.037 56.304 256.037 58.608V78H245.093V42.288H256.037V46.768C257.146 45.2747 258.597 44.1013 260.389 43.248C262.181 42.352 264.208 41.904 266.469 41.904C269.157 41.904 271.546 42.48 273.637 43.632C275.77 44.784 277.434 46.4267 278.629 48.56C279.866 46.5973 281.552 44.9973 283.685 43.76C285.818 42.5227 288.144 41.904 290.661 41.904ZM346.507 59.568C346.507 60.592 346.443 61.6587 346.315 62.768H321.547C321.718 64.9867 322.422 66.6933 323.659 67.888C324.939 69.04 326.496 69.616 328.331 69.616C331.062 69.616 332.96 68.464 334.027 66.16H345.675C345.078 68.5067 343.99 70.6187 342.411 72.496C340.875 74.3733 338.934 75.8453 336.587 76.912C334.24 77.9787 331.616 78.512 328.715 78.512C325.216 78.512 322.102 77.7653 319.371 76.272C316.64 74.7787 314.507 72.6453 312.971 69.872C311.435 67.0987 310.667 63.856 310.667 60.144C310.667 56.432 311.414 53.1893 312.907 50.416C314.443 47.6427 316.576 45.5093 319.307 44.016C322.038 42.5227 325.174 41.776 328.715 41.776C332.171 41.776 335.243 42.5013 337.931 43.952C340.619 45.4027 342.71 47.472 344.203 50.16C345.739 52.848 346.507 55.984 346.507 59.568ZM335.307 56.688C335.307 54.8107 334.667 53.3173 333.387 52.208C332.107 51.0987 330.507 50.544 328.587 50.544C326.752 50.544 325.195 51.0773 323.915 52.144C322.678 53.2107 321.91 54.7253 321.611 56.688H335.307Z" fill="white"/>
</g>
</g>
<defs>
<filter id="filter0_d_304_20" x="0" y="0" width="385" height="120" filterUnits="userSpaceOnUse" color-interpolation-filters="sRGB">
<feFlood flood-opacity="0" result="BackgroundImageFix"/>
<feColorMatrix in="SourceAlpha" type="matrix" values="0 0 0 0 0 0 0 0 0 0 0 0 0 0 0 0 0 0 127 0" result="hardAlpha"/>
<feOffset dy="4"/>
<feGaussianBlur stdDeviation="2"/>
<feComposite in2="hardAlpha" operator="out"/>
<feColorMatrix type="matrix" values="0 0 0 0 0.729412 0 0 0 0 0.905882 0 0 0 0 0.92549 0 0 0 0.25 0"/>
<feBlend mode="normal" in2="BackgroundImageFix" result="effect1_dropShadow_304_20"/>
<feBlend mode="normal" in="SourceGraphic" in2="effect1_dropShadow_304_20" result="shape"/>
</filter>
<filter id="filter1_d_304_20" x="29.6001" y="30.6399" width="324.907" height="63.8721" filterUnits="userSpaceOnUse" color-interpolation-filters="sRGB">
<feFlood flood-opacity="0" result="BackgroundImageFix"/>
<feColorMatrix in="SourceAlpha" type="matrix" values="0 0 0 0 0 0 0 0 0 0 0 0 0 0 0 0 0 0 127 0" result="hardAlpha"/>
<feOffset dy="8"/>
<feGaussianBlur stdDeviation="4"/>
<feComposite in2="hardAlpha" operator="out"/>
<feColorMatrix type="matrix" values="0 0 0 0 0.729412 0 0 0 0 0.905882 0 0 0 0 0.92549 0 0 0 0.24 0"/>
<feBlend mode="normal" in2="BackgroundImageFix" result="effect1_dropShadow_304_20"/>
<feBlend mode="normal" in="SourceGraphic" in2="effect1_dropShadow_304_20" result="shape"/>
</filter>
</defs>
</svg>
